<?xml version="1.0" encoding="UTF-8"?>
<svg width="512" height="512" viewBox="0 0 512 512" fill="none" xmlns="http://www.w3.org/2000/svg">
  <rect width="512" height="512" rx="100" fill="#211c11"/>
  <path d="M256 77C158.3 77 79 156.3 79 254C79 351.7 158.3 431 256 431C353.7 431 433 351.7 433 254C433 156.3 353.7 77 256 77ZM256 116C332.2 116 394 177.8 394 254C394 330.2 332.2 392 256 392C179.8 392 118 330.2 118 254C118 177.8 179.8 116 256 116Z" fill="#e6b932"/>
  <path d="M256 146C196.2 146 148 194.2 148 254C148 313.8 196.2 362 256 362C315.8 362 364 313.8 364 254C364 194.2 315.8 146 256 146ZM256 185C294.5 185 325 215.5 325 254C325 292.5 294.5 323 256 323C217.5 323 187 292.5 187 254C187 215.5 217.5 185 256 185Z" fill="#9c7a3c"/>
  <path d="M256 205C228.6 205 207 226.6 207 254C207 281.4 228.6 303 256 303C283.4 303 305 281.4 305 254C305 226.6 283.4 205 256 205Z" fill="#e6b932"/>
  <path fill-rule="evenodd" clip-rule="evenodd" d="M256 244C250.5 244 246 248.5 246 254C246 259.5 250.5 264 256 264C261.5 264 266 259.5 266 254C266 248.5 261.5 244 256 244ZM236 254C236 242.9 244.9 234 256 234C267.1 234 276 242.9 276 254C276 265.1 267.1 274 256 274C244.9 274 236 265.1 236 254Z" fill="#211c11"/>
  <path d="M325 56L340 97L382 112L340 127L325 168L310 127L268 112L310 97L325 56Z" fill="#e6b932"/>
  <path d="M407 136L417 163L444 173L417 183L407 210L397 183L370 173L397 163L407 136Z" fill="#e6b932"/>
  <path d="M145 369L155 396L182 406L155 416L145 443L135 416L108 406L135 396L145 369Z" fill="#e6b932"/>
</svg>
